<svg width="2028" height="642" viewBox="0 0 2028 642" fill="none" xmlns="http://www.w3.org/2000/svg">
<path d="M1894.72 0H133.14C59.6088 0 0 59.6088 0 133.14V507.87C0 581.401 59.6088 641.01 133.14 641.01H1894.72C1968.25 641.01 2027.86 581.401 2027.86 507.87V133.14C2027.86 59.6088 1968.25 0 1894.72 0Z" fill="#363755"/>
<path d="M299.84 246.48L312.32 288H351.68L301.52 126.24H253.52L204.08 288H242L253.52 246.48H299.84ZM258.8 219.12L268.4 184.8C271.04 175.44 273.44 163.2 275.84 153.6H276.32C278.72 163.2 281.6 175.2 284.48 184.8L294.56 219.12H258.8Z" fill="white"/>
<path d="M484.199 288H520.439V230.16C523.799 230.64 528.119 230.88 532.919 230.88C554.519 230.88 572.999 225.6 585.479 213.84C595.079 204.72 600.359 191.28 600.359 175.44C600.359 159.6 593.399 146.16 583.079 138C572.279 129.36 556.199 125.04 533.639 125.04C511.319 125.04 495.479 126.48 484.199 128.4V288ZM520.439 154.08C523.079 153.36 528.119 152.64 535.559 152.64C553.799 152.64 564.119 161.52 564.119 176.4C564.119 192.96 552.119 202.8 532.679 202.8C527.399 202.8 523.559 202.56 520.439 201.84V154.08Z" fill="white"/>
<path d="M694.933 123.6C647.173 123.6 616.213 159.84 616.213 208.32C616.213 254.4 644.293 290.64 692.293 290.64C739.573 290.64 771.733 258.48 771.733 205.44C771.733 160.8 744.613 123.6 694.933 123.6ZM693.973 152.64C719.173 152.64 733.093 177.6 733.093 206.64C733.093 238.08 718.933 261.6 694.213 261.6C669.733 261.6 654.853 239.28 654.853 207.6C654.853 176.16 669.253 152.64 693.973 152.64Z" fill="white"/>
<path d="M795.684 288H896.724V257.28H832.404V126.24H795.684V288Z" fill="white"/>
<path d="M918.262 288H1019.3V257.28H954.982V126.24H918.262V288Z" fill="white"/>
<path d="M1040.84 126.24V288H1077.56V126.24H1040.84Z" fill="white"/>
<path d="M1222.56 254.88C1215.36 257.76 1203.12 260.16 1192.08 260.16C1159.44 260.16 1140.24 239.76 1140.24 207.36C1140.24 171.36 1162.8 153.84 1191.84 153.84C1204.8 153.84 1215.12 156.72 1222.56 159.84L1230 130.8C1223.52 127.44 1209.12 123.6 1190.16 123.6C1141.2 123.6 1101.84 154.32 1101.84 209.52C1101.84 255.6 1130.64 290.4 1186.56 290.4C1206.24 290.4 1221.36 286.8 1228.08 283.44L1222.56 254.88Z" fill="white"/>
<path d="M1252.01 288H1288.25V235.2L1302.17 218.16L1341.77 288H1384.49L1328.09 195.12L1381.61 126.24H1336.73L1300.01 180C1296.41 185.76 1292.57 191.52 1288.97 197.76H1288.25V126.24H1252.01V288Z" fill="white"/>
<path d="M1447.95 288H1548.99V257.28H1484.67V126.24H1447.95V288Z" fill="white"/>
<path d="M1576.88 288H1613.6V156.96H1657.76V126.24H1533.44V156.96H1576.88V288Z" fill="white"/>
<path d="M1677.17 287.28C1686.29 288.48 1699.73 289.68 1718.69 289.68C1750.37 289.68 1776.29 282.96 1793.33 268.8C1808.93 255.6 1820.21 234.24 1820.21 203.28C1820.21 174.72 1809.65 154.8 1792.85 142.32C1777.25 130.56 1757.33 125.04 1726.61 125.04C1708.13 125.04 1690.61 126.24 1677.17 128.4V287.28ZM1713.89 154.56C1717.01 153.84 1722.29 153.12 1730.45 153.12C1761.89 153.12 1781.57 170.88 1781.33 204.48C1781.33 243.12 1759.73 261.36 1726.61 261.12C1722.05 261.12 1717.01 261.12 1713.89 260.4V154.56Z" fill="white"/>
<path d="M385.36 291.4C398.32 291.4 406.96 282.04 406.96 269.32C406.96 256.12 398.32 247 385.6 247C372.88 247 364 256.36 364 269.32C364 282.04 372.88 291.4 385.36 291.4Z" fill="#F19225"/>
<path d="M768.367 440.816H748.117V454.527H771.883V463H737.57V411.812H771.812V420.355H748.117V432.555H768.367V440.816Z" fill="white"/>
<path d="M798.004 452.488C798.004 451.246 797.383 450.273 796.141 449.57C794.922 448.844 792.953 448.199 790.234 447.637C781.188 445.738 776.664 441.895 776.664 436.105C776.664 432.73 778.059 429.918 780.848 427.668C783.66 425.395 787.328 424.258 791.852 424.258C796.68 424.258 800.535 425.395 803.418 427.668C806.324 429.941 807.777 432.895 807.777 436.527H797.617C797.617 435.074 797.148 433.879 796.211 432.941C795.273 431.98 793.809 431.5 791.816 431.5C790.105 431.5 788.781 431.887 787.844 432.66C786.906 433.434 786.438 434.418 786.438 435.613C786.438 436.738 786.965 437.652 788.02 438.355C789.098 439.035 790.902 439.633 793.434 440.148C795.965 440.641 798.098 441.203 799.832 441.836C805.199 443.805 807.883 447.215 807.883 452.066C807.883 455.535 806.395 458.348 803.418 460.504C800.441 462.637 796.598 463.703 791.887 463.703C788.699 463.703 785.863 463.141 783.379 462.016C780.918 460.867 778.984 459.309 777.578 457.34C776.172 455.348 775.469 453.203 775.469 450.906H785.102C785.195 452.711 785.863 454.094 787.105 455.055C788.348 456.016 790.012 456.496 792.098 456.496C794.043 456.496 795.508 456.133 796.492 455.406C797.5 454.656 798.004 453.684 798.004 452.488Z" fill="white"/>
<path d="M826.621 415.609V424.961H833.125V432.414H826.621V451.398C826.621 452.805 826.891 453.812 827.43 454.422C827.969 455.031 829 455.336 830.523 455.336C831.648 455.336 832.645 455.254 833.512 455.09V462.789C831.52 463.398 829.469 463.703 827.359 463.703C820.234 463.703 816.602 460.105 816.461 452.91V432.414H810.906V424.961H816.461V415.609H826.621Z" fill="white"/>
<path d="M860.828 463C860.359 462.086 860.02 460.949 859.809 459.59C857.348 462.332 854.148 463.703 850.211 463.703C846.484 463.703 843.391 462.625 840.93 460.469C838.492 458.312 837.273 455.594 837.273 452.312C837.273 448.281 838.762 445.188 841.738 443.031C844.738 440.875 849.062 439.785 854.711 439.762H859.387V437.582C859.387 435.824 858.93 434.418 858.016 433.363C857.125 432.309 855.707 431.781 853.762 431.781C852.051 431.781 850.703 432.191 849.719 433.012C848.758 433.832 848.277 434.957 848.277 436.387H838.117C838.117 434.184 838.797 432.145 840.156 430.27C841.516 428.395 843.438 426.93 845.922 425.875C848.406 424.797 851.195 424.258 854.289 424.258C858.977 424.258 862.691 425.441 865.434 427.809C868.199 430.152 869.582 433.457 869.582 437.723V454.211C869.605 457.82 870.109 460.551 871.094 462.402V463H860.828ZM852.426 455.934C853.926 455.934 855.309 455.605 856.574 454.949C857.84 454.27 858.777 453.367 859.387 452.242V445.703H855.59C850.504 445.703 847.797 447.461 847.469 450.977L847.434 451.574C847.434 452.84 847.879 453.883 848.77 454.703C849.66 455.523 850.879 455.934 852.426 455.934Z" fill="white"/>
<path d="M911.664 444.332C911.664 450.426 910.363 455.184 907.762 458.605C905.16 462.004 901.527 463.703 896.863 463.703C892.738 463.703 889.445 462.121 886.984 458.957L886.527 463H877.387V409H887.547V428.371C889.891 425.629 892.973 424.258 896.793 424.258C901.434 424.258 905.066 425.969 907.691 429.391C910.34 432.789 911.664 437.582 911.664 443.77V444.332ZM901.504 443.594C901.504 439.75 900.895 436.949 899.676 435.191C898.457 433.41 896.641 432.52 894.227 432.52C890.992 432.52 888.766 433.844 887.547 436.492V451.504C888.789 454.176 891.039 455.512 894.297 455.512C897.578 455.512 899.734 453.895 900.766 450.66C901.258 449.113 901.504 446.758 901.504 443.594Z" fill="white"/>
<path d="M928.68 463H918.484V409H928.68V463Z" fill="white"/>
<path d="M947.805 463H937.609V424.961H947.805V463ZM937.012 415.117C937.012 413.594 937.516 412.34 938.523 411.355C939.555 410.371 940.949 409.879 942.707 409.879C944.441 409.879 945.824 410.371 946.855 411.355C947.887 412.34 948.402 413.594 948.402 415.117C948.402 416.664 947.875 417.93 946.82 418.914C945.789 419.898 944.418 420.391 942.707 420.391C940.996 420.391 939.613 419.898 938.559 418.914C937.527 417.93 937.012 416.664 937.012 415.117Z" fill="white"/>
<path d="M976.809 452.488C976.809 451.246 976.188 450.273 974.945 449.57C973.727 448.844 971.758 448.199 969.039 447.637C959.992 445.738 955.469 441.895 955.469 436.105C955.469 432.73 956.863 429.918 959.652 427.668C962.465 425.395 966.133 424.258 970.656 424.258C975.484 424.258 979.34 425.395 982.223 427.668C985.129 429.941 986.582 432.895 986.582 436.527H976.422C976.422 435.074 975.953 433.879 975.016 432.941C974.078 431.98 972.613 431.5 970.621 431.5C968.91 431.5 967.586 431.887 966.648 432.66C965.711 433.434 965.242 434.418 965.242 435.613C965.242 436.738 965.77 437.652 966.824 438.355C967.902 439.035 969.707 439.633 972.238 440.148C974.77 440.641 976.902 441.203 978.637 441.836C984.004 443.805 986.688 447.215 986.688 452.066C986.688 455.535 985.199 458.348 982.223 460.504C979.246 462.637 975.402 463.703 970.691 463.703C967.504 463.703 964.668 463.141 962.184 462.016C959.723 460.867 957.789 459.309 956.383 457.34C954.977 455.348 954.273 453.203 954.273 450.906H963.906C964 452.711 964.668 454.094 965.91 455.055C967.152 456.016 968.816 456.496 970.902 456.496C972.848 456.496 974.312 456.133 975.297 455.406C976.305 454.656 976.809 453.684 976.809 452.488Z" fill="white"/>
<path d="M1003.18 429.109C1005.87 425.875 1009.26 424.258 1013.34 424.258C1021.59 424.258 1025.77 429.051 1025.89 438.637V463H1015.73V438.918C1015.73 436.738 1015.26 435.133 1014.32 434.102C1013.38 433.047 1011.82 432.52 1009.64 432.52C1006.67 432.52 1004.51 433.668 1003.18 435.965V463H993.016V409H1003.18V429.109Z" fill="white"/>
<path d="M1051.06 463.703C1045.48 463.703 1040.93 461.992 1037.42 458.57C1033.93 455.148 1032.18 450.59 1032.18 444.895V443.91C1032.18 440.09 1032.92 436.68 1034.39 433.68C1035.87 430.656 1037.96 428.336 1040.65 426.719C1043.37 425.078 1046.46 424.258 1049.93 424.258C1055.14 424.258 1059.23 425.898 1062.2 429.18C1065.2 432.461 1066.7 437.113 1066.7 443.137V447.285H1042.48C1042.81 449.77 1043.79 451.762 1045.43 453.262C1047.1 454.762 1049.2 455.512 1051.73 455.512C1055.64 455.512 1058.7 454.094 1060.9 451.258L1065.89 456.848C1064.37 459.004 1062.31 460.691 1059.71 461.91C1057.11 463.105 1054.22 463.703 1051.06 463.703ZM1049.9 432.484C1047.88 432.484 1046.24 433.164 1044.98 434.523C1043.73 435.883 1042.94 437.828 1042.59 440.359H1056.72V439.551C1056.67 437.301 1056.06 435.566 1054.89 434.348C1053.72 433.105 1052.05 432.484 1049.9 432.484Z" fill="white"/>
<path d="M1070.92 443.699C1070.92 437.77 1072.25 433.047 1074.89 429.531C1077.57 426.016 1081.21 424.258 1085.83 424.258C1089.53 424.258 1092.59 425.641 1095 428.406V409H1105.2V463H1096.02L1095.53 458.957C1093 462.121 1089.74 463.703 1085.76 463.703C1081.28 463.703 1077.68 461.945 1074.96 458.43C1072.27 454.891 1070.92 449.98 1070.92 443.699ZM1081.08 444.438C1081.08 448 1081.7 450.73 1082.95 452.629C1084.19 454.527 1085.99 455.477 1088.36 455.477C1091.5 455.477 1093.71 454.152 1095 451.504V436.492C1093.74 433.844 1091.55 432.52 1088.43 432.52C1083.53 432.52 1081.08 436.492 1081.08 444.438Z" fill="white"/>
<path d="M1155.26 463H1145.1V423.836L1132.97 427.598V419.336L1154.17 411.742H1155.26V463Z" fill="white"/>
<path d="M1195.69 442.539C1193.04 445.141 1189.95 446.441 1186.41 446.441C1181.89 446.441 1178.27 444.895 1175.55 441.801C1172.83 438.684 1171.47 434.488 1171.47 429.215C1171.47 425.863 1172.2 422.793 1173.65 420.004C1175.12 417.191 1177.18 415.012 1179.8 413.465C1182.43 411.895 1185.38 411.109 1188.66 411.109C1192.04 411.109 1195.04 411.953 1197.66 413.641C1200.29 415.328 1202.32 417.754 1203.78 420.918C1205.23 424.082 1205.97 427.703 1205.99 431.781V435.543C1205.99 444.074 1203.87 450.777 1199.63 455.652C1195.39 460.527 1189.38 463.129 1181.59 463.457L1179.1 463.492V455.02L1181.35 454.984C1190.18 454.586 1194.96 450.438 1195.69 442.539ZM1188.91 438.672C1190.55 438.672 1191.95 438.25 1193.12 437.406C1194.32 436.562 1195.22 435.543 1195.83 434.348V430.164C1195.83 426.719 1195.18 424.047 1193.86 422.148C1192.55 420.25 1190.79 419.301 1188.59 419.301C1186.55 419.301 1184.88 420.238 1183.56 422.113C1182.25 423.965 1181.59 426.297 1181.59 429.109C1181.59 431.898 1182.23 434.195 1183.49 436C1184.78 437.781 1186.59 438.672 1188.91 438.672Z" fill="white"/>
<path d="M1223.61 432.906H1229.02C1231.6 432.906 1233.51 432.262 1234.75 430.973C1235.99 429.684 1236.61 427.973 1236.61 425.84C1236.61 423.777 1235.99 422.172 1234.75 421.023C1233.53 419.875 1231.84 419.301 1229.69 419.301C1227.74 419.301 1226.11 419.84 1224.8 420.918C1223.49 421.973 1222.83 423.355 1222.83 425.066H1212.67C1212.67 422.395 1213.39 420.004 1214.82 417.895C1216.27 415.762 1218.29 414.098 1220.86 412.902C1223.46 411.707 1226.32 411.109 1229.44 411.109C1234.86 411.109 1239.1 412.41 1242.17 415.012C1245.24 417.59 1246.77 421.152 1246.77 425.699C1246.77 428.043 1246.06 430.199 1244.63 432.168C1243.2 434.137 1241.32 435.648 1239 436.703C1241.89 437.734 1244.03 439.281 1245.44 441.344C1246.87 443.406 1247.58 445.844 1247.58 448.656C1247.58 453.203 1245.92 456.848 1242.59 459.59C1239.29 462.332 1234.9 463.703 1229.44 463.703C1224.33 463.703 1220.15 462.355 1216.89 459.66C1213.66 456.965 1212.04 453.402 1212.04 448.973H1222.2C1222.2 450.895 1222.91 452.465 1224.34 453.684C1225.8 454.902 1227.58 455.512 1229.69 455.512C1232.1 455.512 1233.99 454.879 1235.35 453.613C1236.73 452.324 1237.42 450.625 1237.42 448.516C1237.42 443.406 1234.61 440.852 1228.98 440.852H1223.61V432.906Z" fill="white"/>
<path d="M1284.67 443.734H1290.47V451.926H1284.67V463H1274.51V451.926H1253.52L1253.07 445.527L1274.41 411.812H1284.67V443.734ZM1263.19 443.734H1274.51V425.664L1273.84 426.824L1263.19 443.734Z" fill="white"/>
</svg>
